  0
SECTION
  2
HEADER
  9
$ACADVER
  1
AC1006
  9
$AXISMODE
 70
     1
  9
$AXISUNIT
 10
0.1
 20
0.1
  9
$CECOLOR
 62
0
  9
$CELTYPE
  6
CONTINUOUS
  9
$CLAYER
  8
LAYER1
  9
$EXTMIN
 10
0
 20
0
  9
$EXTMAX
 10
7.6667
 20
10.1111
  9
$LIMMIN
 10
0
 20
0
  9
$LIMMAX
 10
7.6667
 20
10.1111
  9
$GRIDMODE
 70
     1
  9
$GRIDUNIT
 10
0.125
 20
0.125
  9
$MIRRTEXT
 70
     1
  9
$SNAPMODE
 70
     1
  9
$SNAPUNIT
 10
0.125
 20
0
  9
$SNAPSTYLE
 70
     0
  9
$SPLINESEGS
 70
     8
  9
$SPLINETYPE
 70
     6
  0
ENDSEC
  0
SECTION
  2
TABLES
  0TABLE  2VPORT 70     2  0VPORT  2*ACTIVE 70     0 100.0 200.0 111.0 211.0 1213.01087 224.5 130.0 230.0 141.0 241.0 150.0 250.0 160.0 260.0 361.0 170.0 270.0 370.0 409.0 412.891304 4250.0 430.0 440.0 500.0 510.0 71     0 72   100 73     1 74     1 75     0 76     0 77     0 78     0  0ENDTAB
  0
TABLE
  2
LTYPE
 70
     1
  0
LTYPE
  2
CONTINUOUS
 70
    64
  3
Descriptive Text
 72
    65
 73
     0
 40
0
  0
ENDTAB
  0
TABLE
  2
LAYER
 70
     1
  0
LAYER
  2
LAYER1
 70
     0
 62
     7
  6
CONTINUOUS
  0
ENDTAB
  0
TABLE
  2
STYLE
 70
     4
  0
STYLE
  2
STANDARD
 70
    64
 40
0.0
 41
1.0
 50
0.0
 71
     0
 42
0.2
  3
txt
  4

  0
STYLE
  2
GENEVA
 70
    64
 40
0.0
 41
1.0
 50
0.0
 71
     0
 42
0.2
  3
geneva
  4

  0
STYLE
  2
COURIER
 70
    64
 40
0.0
 41
1.0
 50
0.0
 71
     0
 42
0.2
  3
courier
  4

  0
STYLE
  2
HELVETIC
 70
    64
 40
0.0
 41
1.0
 50
0.0
 71
     0
 42
0.2
  3
helvetica
  4

  0
STYLE
  2
SYMBOL
 70
    64
 40
0.0
 41
1.0
 50
0.0
 71
     0
 42
0.2
  3
symbol
  4

  0
ENDTAB
  0
TABLE
  2
VIEW
 70
     0
  0
ENDTAB
  0
TABLE
  2
USC
 70
     0
  0
ENDTAB
  0
TABLE
  2
DWGMGR
 70
     0
  0
ENDTAB
  0
ENDSEC
  0
SECTION
  2
BLOCKS
  0
BLOCK
  8
LAYER1
  2
Group1
 70
     0
 10
0
 20
0
 30
0
  0
POLYLINE
  8
LAYER1
  6
CONTINUOUS
 62
   174
 66
     1
 70
     1
 40
0.0139
 41
0.0139
  0
VERTEX
  8
LAYER1
 10
3.1618e3
 20
4.3244e3
 30
0
 70
     0
  0
VERTEX
  8
LAYER1
 10
3.1582e3
 20
4.3068e3
 30
0
 70
     0
  0
VERTEX
  8
LAYER1
 10
3.1485e3
 20
4.2924e3
 30
0
 70
     0
  0
VERTEX
  8
LAYER1
 10
3.1341e3
 20
4.2827e3
 30
0
 70
     0
  0
VERTEX
  8
LAYER1
 10
3.1165e3
 20
4.2791e3
 30
0
 70
     0
  0
VERTEX
  8
LAYER1
 10
3.1165e3
 20
4.2791e3
 30
0
 70
     0
  0
VERTEX
  8
LAYER1
 10
3.099e3
 20
4.2827e3
 30
0
 70
     0
  0
VERTEX
  8
LAYER1
 10
3.0846e3
 20
4.2924e3
 30
0
 70
     0
  0
VERTEX
  8
LAYER1
 10
3.0748e3
 20
4.3068e3
 30
0
 70
     0
  0
VERTEX
  8
LAYER1
 10
3.0713e3
 20
4.3244e3
 30
0
 70
     0
  0
VERTEX
  8
LAYER1
 10
3.0713e3
 20
4.3244e3
 30
0
 70
     0
  0
VERTEX
  8
LAYER1
 10
3.0748e3
 20
4.3419e3
 30
0
 70
     0
  0
VERTEX
  8
LAYER1
 10
3.0846e3
 20
4.3563e3
 30
0
 70
     0
  0
VERTEX
  8
LAYER1
 10
3.099e3
 20
4.3661e3
 30
0
 70
     0
  0
VERTEX
  8
LAYER1
 10
3.1165e3
 20
4.3696e3
 30
0
 70
     0
  0
VERTEX
  8
LAYER1
 10
3.1165e3
 20
4.3696e3
 30
0
 70
     0
  0
VERTEX
  8
LAYER1
 10
3.1341e3
 20
4.3661e3
 30
0
 70
     0
  0
VERTEX
  8
LAYER1
 10
3.1485e3
 20
4.3563e3
 30
0
 70
     0
  0
VERTEX
  8
LAYER1
 10
3.1582e3
 20
4.3419e3
 30
0
 70
     0
  0
VERTEX
  8
LAYER1
 10
3.1618e3
 20
4.3244e3
 30
0
 70
     0
  0
SEQEND
  0
LINE
  8
LAYER1
  6
CONTINUOUS
 62
   174
 10
3.1163e3
 20
4.3647e3
 30
0
 11
3.1163e3
 21
4.281e3
 31
0
  0
LINE
  8
LAYER1
  6
CONTINUOUS
 62
   174
 10
3.0716e3
 20
4.3238e3
 30
0
 11
3.1609e3
 21
4.3238e3
 31
0
  0
ENDBLK
  8
LAYER1
  0
BLOCK
  8
LAYER1
  2
Group2
 70
     0
 10
0
 20
0
 30
0
  0
POLYLINE
  8
LAYER1
  6
CONTINUOUS
 62
   174
 66
     1
 70
     1
 40
0.0139
 41
0.0139
  0
VERTEX
  8
LAYER1
 10
3.9757e3
 20
4.122e3
 30
0
 70
     0
  0
VERTEX
  8
LAYER1
 10
3.9721e3
 20
4.1044e3
 30
0
 70
     0
  0
VERTEX
  8
LAYER1
 10
3.9624e3
 20
4.09e3
 30
0
 70
     0
  0
VERTEX
  8
LAYER1
 10
3.948e3
 20
4.0803e3
 30
0
 70
     0
  0
VERTEX
  8
LAYER1
 10
3.9304e3
 20
4.0767e3
 30
0
 70
     0
  0
VERTEX
  8
LAYER1
 10
3.9304e3
 20
4.0767e3
 30
0
 70
     0
  0
VERTEX
  8
LAYER1
 10
3.9129e3
 20
4.0803e3
 30
0
 70
     0
  0
VERTEX
  8
LAYER1
 10
3.8985e3
 20
4.09e3
 30
0
 70
     0
  0
VERTEX
  8
LAYER1
 10
3.8887e3
 20
4.1044e3
 30
0
 70
     0
  0
VERTEX
  8
LAYER1
 10
3.8852e3
 20
4.122e3
 30
0
 70
     0
  0
VERTEX
  8
LAYER1
 10
3.8852e3
 20
4.122e3
 30
0
 70
     0
  0
VERTEX
  8
LAYER1
 10
3.8887e3
 20
4.1395e3
 30
0
 70
     0
  0
VERTEX
  8
LAYER1
 10
3.8985e3
 20
4.1539e3
 30
0
 70
     0
  0
VERTEX
  8
LAYER1
 10
3.9129e3
 20
4.1636e3
 30
0
 70
     0
  0
VERTEX
  8
LAYER1
 10
3.9304e3
 20
4.1672e3
 30
0
 70
     0
  0
VERTEX
  8
LAYER1
 10
3.9304e3
 20
4.1672e3
 30
0
 70
     0
  0
VERTEX
  8
LAYER1
 10
3.948e3
 20
4.1636e3
 30
0
 70
     0
  0
VERTEX
  8
LAYER1
 10
3.9624e3
 20
4.1539e3
 30
0
 70
     0
  0
VERTEX
  8
LAYER1
 10
3.9721e3
 20
4.1395e3
 30
0
 70
     0
  0
VERTEX
  8
LAYER1
 10
3.9757e3
 20
4.122e3
 30
0
 70
     0
  0
SEQEND
  0
LINE
  8
LAYER1
  6
CONTINUOUS
 62
   174
 10
3.9302e3
 20
4.1623e3
 30
0
 11
3.9302e3
 21
4.0785e3
 31
0
  0
LINE
  8
LAYER1
  6
CONTINUOUS
 62
   174
 10
3.8855e3
 20
4.1214e3
 30
0
 11
3.9748e3
 21
4.1214e3
 31
0
  0
ENDBLK
  8
LAYER1
  0
BLOCK
  8
LAYER1
  2
Group3
 70
     0
 10
0
 20
0
 30
0
  0
LINE
  8
LAYER1
  6
CONTINUOUS
 62
     7
 10
3.4998e3
 20
2.2713e3
 30
0
 11
4.4998e3
 21
2.2713e3
 31
0
  0
LINE
  8
LAYER1
  6
CONTINUOUS
 62
     7
 10
3.4985e3
 20
2.2644e3
 30
0
 11
3.4985e3
 21
2.3144e3
 31
0
  0
LINE
  8
LAYER1
  6
CONTINUOUS
 62
     7
 10
3.5985e3
 20
2.2644e3
 30
0
 11
3.5985e3
 21
2.3144e3
 31
0
  0
LINE
  8
LAYER1
  6
CONTINUOUS
 62
     7
 10
3.6985e3
 20
2.2644e3
 30
0
 11
3.6985e3
 21
2.3144e3
 31
0
  0
LINE
  8
LAYER1
  6
CONTINUOUS
 62
     7
 10
4.0985e3
 20
2.2644e3
 30
0
 11
4.0985e3
 21
2.3144e3
 31
0
  0
LINE
  8
LAYER1
  6
CONTINUOUS
 62
     7
 10
4.2985e3
 20
2.2644e3
 30
0
 11
4.2985e3
 21
2.3144e3
 31
0
  0
LINE
  8
LAYER1
  6
CONTINUOUS
 62
     7
 10
4.3985e3
 20
2.2644e3
 30
0
 11
4.3985e3
 21
2.3144e3
 31
0
  0
LINE
  8
LAYER1
  6
CONTINUOUS
 62
     7
 10
4.4985e3
 20
2.2644e3
 30
0
 11
4.4985e3
 21
2.3144e3
 31
0
  0
LINE
  8
LAYER1
  6
CONTINUOUS
 62
     7
 10
3.7985e3
 20
2.2644e3
 30
0
 11
3.7985e3
 21
2.3144e3
 31
0
  0
LINE
  8
LAYER1
  6
CONTINUOUS
 62
     7
 10
3.9985e3
 20
2.2644e3
 30
0
 11
3.9985e3
 21
2.3144e3
 31
0
  0
LINE
  8
LAYER1
  6
CONTINUOUS
 62
     7
 10
4.1985e3
 20
2.2644e3
 30
0
 11
4.1985e3
 21
2.3144e3
 31
0
  0
LINE
  8
LAYER1
  6
CONTINUOUS
 62
     7
 10
3.8985e3
 20
2.2644e3
 30
0
 11
3.8985e3
 21
2.3144e3
 31
0
  0
ENDBLK
  8
LAYER1
  0
ENDSEC
  0
SECTION
  2
ENTITIES
  0
POLYLINE
  8
LAYER1
  6
CONTINUOUS
 62
   133
 66
     1
 70
     0
 40
0.25
 41
0.25
  0
VERTEX
  8
LAYER1
 10
6.3019e3
 20
3.3634e3
 30
0
 70
     0
  0
VERTEX
  8
LAYER1
 10
6.1874e3
 20
3.3634e3
 30
0
 70
     0
  0
VERTEX
  8
LAYER1
 10
6.0641e3
 20
3.3722e3
 30
0
 70
     0
  0
VERTEX
  8
LAYER1
 10
5.888e3
 20
3.3986e3
 30
0
 70
     0
  0
VERTEX
  8
LAYER1
 10
5.7471e3
 20
3.4162e3
 30
0
 70
     0
  0
VERTEX
  8
LAYER1
 10
5.5446e3
 20
3.4426e3
 30
0
 70
     0
  0
VERTEX
  8
LAYER1
 10
5.3597e3
 20
3.4691e3
 30
0
 70
     0
  0
VERTEX
  8
LAYER1
 10
5.1572e3
 20
3.4691e3
 30
0
 70
     0
  0
VERTEX
  8
LAYER1
 10
4.9546e3
 20
3.4691e3
 30
0
 70
     0
  0
VERTEX
  8
LAYER1
 10
4.6817e3
 20
3.4338e3
 30
0
 70
     0
  0
VERTEX
  8
LAYER1
 10
4.3471e3
 20
3.3722e3
 30
0
 70
     0
  0
VERTEX
  8
LAYER1
 10
4.1622e3
 20
3.3458e3
 30
0
 70
     0
  0
VERTEX
  8
LAYER1
 10
4.0301e3
 20
3.3458e3
 30
0
 70
     0
  0
VERTEX
  8
LAYER1
 10
3.8275e3
 20
3.3634e3
 30
0
 70
     0
  0
VERTEX
  8
LAYER1
 10
3.6074e3
 20
3.3898e3
 30
0
 70
     0
  0
VERTEX
  8
LAYER1
 10
3.4049e3
 20
3.4074e3
 30
0
 70
     0
  0
VERTEX
  8
LAYER1
 10
3.1759e3
 20
3.4074e3
 30
0
 70
     0
  0
VERTEX
  8
LAYER1
 10
2.9118e3
 20
3.3458e3
 30
0
 70
     0
  0
VERTEX
  8
LAYER1
 10
2.6828e3
 20
3.2753e3
 30
0
 70
     0
  0
VERTEX
  8
LAYER1
 10
2.4275e3
 20
3.2049e3
 30
0
 70
     0
  0
VERTEX
  8
LAYER1
 10
2.2073e3
 20
3.1432e3
 30
0
 70
     0
  0
VERTEX
  8
LAYER1
 10
1.996e3
 20
3.108e3
 30
0
 70
     0
  0
VERTEX
  8
LAYER1
 10
1.8287e3
 20
3.0992e3
 30
0
 70
     0
  0
VERTEX
  8
LAYER1
 10
1.6878e3
 20
3.0992e3
 30
0
 70
     0
  0
SEQEND
  0
LINE
  8
LAYER1
  6
CONTINUOUS
 62
   133
 10
3.7131e3
 20
3.7332e3
 30
0
 11
3.7131e3
 21
3.7332e3
 31
0
  0
POLYLINE
  8
LAYER1
  6
CONTINUOUS
 62
     7
 66
     1
 70
     1
 40
0.0139
 41
0.0139
  0
VERTEX
  8
LAYER1
 10
4.68e3
 20
7.2395e3
 30
0
 70
     0
  0
VERTEX
  8
LAYER1
 10
4.6727e3
 20
7.2095e3
 30
0
 70
     0
  0
VERTEX
  8
LAYER1
 10
4.653e3
 20
7.1849e3
 30
0
 70
     0
  0
VERTEX
  8
LAYER1
 10
4.6239e3
 20
7.1682e3
 30
0
 70
     0
  0
VERTEX
  8
LAYER1
 10
4.5884e3
 20
7.162e3
 30
0
 70
     0
  0
VERTEX
  8
LAYER1
 10
4.5884e3
 20
7.162e3
 30
0
 70
     0
  0
VERTEX
  8
LAYER1
 10
4.5529e3
 20
7.1682e3
 30
0
 70
     0
  0
VERTEX
  8
LAYER1
 10
4.5237e3
 20
7.1849e3
 30
0
 70
     0
  0
VERTEX
  8
LAYER1
 10
4.504e3
 20
7.2095e3
 30
0
 70
     0
  0
VERTEX
  8
LAYER1
 10
4.4968e3
 20
7.2395e3
 30
0
 70
     0
  0
VERTEX
  8
LAYER1
 10
4.4968e3
 20
7.2395e3
 30
0
 70
     0
  0
VERTEX
  8
LAYER1
 10
4.504e3
 20
7.2696e3
 30
0
 70
     0
  0
VERTEX
  8
LAYER1
 10
4.5237e3
 20
7.2942e3
 30
0
 70
     0
  0
VERTEX
  8
LAYER1
 10
4.5529e3
 20
7.3109e3
 30
0
 70
     0
  0
VERTEX
  8
LAYER1
 10
4.5884e3
 20
7.3171e3
 30
0
 70
     0
  0
VERTEX
  8
LAYER1
 10
4.5884e3
 20
7.3171e3
 30
0
 70
     0
  0
VERTEX
  8
LAYER1
 10
4.6239e3
 20
7.3109e3
 30
0
 70
     0
  0
VERTEX
  8
LAYER1
 10
4.653e3
 20
7.2942e3
 30
0
 70
     0
  0
VERTEX
  8
LAYER1
 10
4.6727e3
 20
7.2696e3
 30
0
 70
     0
  0
VERTEX
  8
LAYER1
 10
4.68e3
 20
7.2395e3
 30
0
 70
     0
  0
SEQEND
  0
POLYLINE
  8
LAYER1
  6
CONTINUOUS
 62
     7
 66
     1
 70
     1
 40
0.0278
 41
0.0278
  0
VERTEX
  8
LAYER1
 10
4.3911e3
 20
5.9566e3
 30
0
 70
     0
  0
VERTEX
  8
LAYER1
 10
4.388e3
 20
5.9412e3
 30
0
 70
     0
  0
VERTEX
  8
LAYER1
 10
4.3795e3
 20
5.9286e3
 30
0
 70
     0
  0
VERTEX
  8
LAYER1
 10
4.3669e3
 20
5.9201e3
 30
0
 70
     0
  0
VERTEX
  8
LAYER1
 10
4.3515e3
 20
5.9169e3
 30
0
 70
     0
  0
VERTEX
  8
LAYER1
 10
4.3515e3
 20
5.9169e3
 30
0
 70
     0
  0
VERTEX
  8
LAYER1
 10
4.3361e3
 20
5.9201e3
 30
0
 70
     0
  0
VERTEX
  8
LAYER1
 10
4.3235e3
 20
5.9286e3
 30
0
 70
     0
  0
VERTEX
  8
LAYER1
 10
4.315e3
 20
5.9412e3
 30
0
 70
     0
  0
VERTEX
  8
LAYER1
 10
4.3119e3
 20
5.9566e3
 30
0
 70
     0
  0
VERTEX
  8
LAYER1
 10
4.3119e3
 20
5.9566e3
 30
0
 70
     0
  0
VERTEX
  8
LAYER1
 10
4.315e3
 20
5.972e3
 30
0
 70
     0
  0
VERTEX
  8
LAYER1
 10
4.3235e3
 20
5.9846e3
 30
0
 70
     0
  0
VERTEX
  8
LAYER1
 10
4.3361e3
 20
5.9931e3
 30
0
 70
     0
  0
VERTEX
  8
LAYER1
 10
4.3515e3
 20
5.9962e3
 30
0
 70
     0
  0
VERTEX
  8
LAYER1
 10
4.3515e3
 20
5.9962e3
 30
0
 70
     0
  0
VERTEX
  8
LAYER1
 10
4.3669e3
 20
5.9931e3
 30
0
 70
     0
  0
VERTEX
  8
LAYER1
 10
4.3795e3
 20
5.9846e3
 30
0
 70
     0
  0
VERTEX
  8
LAYER1
 10
4.388e3
 20
5.972e3
 30
0
 70
     0
  0
VERTEX
  8
LAYER1
 10
4.3911e3
 20
5.9566e3
 30
0
 70
     0
  0
SEQEND
  0
POLYLINE
  8
LAYER1
  6
CONTINUOUS
 62
     7
 66
     1
 70
     0
 40
0.0139
 41
0.0139
  0
VERTEX
  8
LAYER1
 10
4.069e3
 20
6.0195e3
 30
0
 70
     0
  0
VERTEX
  8
LAYER1
 10
3.9993e3
 20
6.0256e3
 30
0
 70
     0
  0
VERTEX
  8
LAYER1
 10
3.9357e3
 20
6.0158e3
 30
0
 70
     0
  0
VERTEX
  8
LAYER1
 10
3.877e3
 20
6.0011e3
 30
0
 70
     0
  0
VERTEX
  8
LAYER1
 10
3.8232e3
 20
5.9718e3
 30
0
 70
     0
  0
VERTEX
  8
LAYER1
 10
3.7559e3
 20
5.9216e3
 30
0
 70
     0
  0
VERTEX
  8
LAYER1
 10
3.7253e3
 20
5.8788e3
 30
0
 70
     0
  0
VERTEX
  8
LAYER1
 10
3.6813e3
 20
5.8054e3
 30
0
 70
     0
  0
VERTEX
  8
LAYER1
 10
3.6519e3
 20
5.7223e3
 30
0
 70
     0
  0
VERTEX
  8
LAYER1
 10
3.6422e3
 20
5.6538e3
 30
0
 70
     0
  0
VERTEX
  8
LAYER1
 10
3.6422e3
 20
5.5902e3
 30
0
 70
     0
  0
VERTEX
  8
LAYER1
 10
3.647e3
 20
5.4972e3
 30
0
 70
     0
  0
VERTEX
  8
LAYER1
 10
3.6483e3
 20
5.4471e3
 30
0
 70
     0
  0
VERTEX
  8
LAYER1
 10
3.6324e3
 20
5.3798e3
 30
0
 70
     0
  0
VERTEX
  8
LAYER1
 10
3.5932e3
 20
5.2967e3
 30
0
 70
     0
  0
VERTEX
  8
LAYER1
 10
3.5492e3
 20
5.2184e3
 30
0
 70
     0
  0
VERTEX
  8
LAYER1
 10
3.5088e3
 20
5.1682e3
 30
0
 70
     0
  0
VERTEX
  8
LAYER1
 10
3.4746e3
 20
5.1047e3
 30
0
 70
     0
  0
VERTEX
  8
LAYER1
 10
3.466e3
 20
5.0423e3
 30
0
 70
     0
  0
VERTEX
  8
LAYER1
 10
3.4807e3
 20
4.9836e3
 30
0
 70
     0
  0
VERTEX
  8
LAYER1
 10
3.5101e3
 20
4.9102e3
 30
0
 70
     0
  0
VERTEX
  8
LAYER1
 10
3.5431e3
 20
4.8625e3
 30
0
 70
     0
  0
VERTEX
  8
LAYER1
 10
3.5835e3
 20
4.8417e3
 30
0
 70
     0
  0
VERTEX
  8
LAYER1
 10
3.6373e3
 20
4.827e3
 30
0
 70
     0
  0
VERTEX
  8
LAYER1
 10
3.6764e3
 20
4.827e3
 30
0
 70
     0
  0
VERTEX
  8
LAYER1
 10
3.7498e3
 20
4.8466e3
 30
0
 70
     0
  0
VERTEX
  8
LAYER1
 10
3.8232e3
 20
4.8759e3
 30
0
 70
     0
  0
VERTEX
  8
LAYER1
 10
3.8782e3
 20
4.8992e3
 30
0
 70
     0
  0
VERTEX
  8
LAYER1
 10
3.9369e3
 20
4.9236e3
 30
0
 70
     0
  0
VERTEX
  8
LAYER1
 10
3.9834e3
 20
4.9603e3
 30
0
 70
     0
  0
VERTEX
  8
LAYER1
 10
4.0139e3
 20
4.9921e3
 30
0
 70
     0
  0
VERTEX
  8
LAYER1
 10
4.0384e3
 20
5.0276e3
 30
0
 70
     0
  0
VERTEX
  8
LAYER1
 10
4.0482e3
 20
5.0765e3
 30
0
 70
     0
  0
VERTEX
  8
LAYER1
 10
4.0421e3
 20
5.1206e3
 30
0
 70
     0
  0
VERTEX
  8
LAYER1
 10
4.0335e3
 20
5.1744e3
 30
0
 70
     0
  0
VERTEX
  8
LAYER1
 10
4.0188e3
 20
5.2233e3
 30
0
 70
     0
  0
VERTEX
  8
LAYER1
 10
3.9993e3
 20
5.2918e3
 30
0
 70
     0
  0
VERTEX
  8
LAYER1
 10
3.9895e3
 20
5.3505e3
 30
0
 70
     0
  0
VERTEX
  8
LAYER1
 10
3.9944e3
 20
5.3896e3
 30
0
 70
     0
  0
VERTEX
  8
LAYER1
 10
4.0237e3
 20
5.463e3
 30
0
 70
     0
  0
VERTEX
  8
LAYER1
 10
4.0531e3
 20
5.5119e3
 30
0
 70
     0
  0
VERTEX
  8
LAYER1
 10
4.0922e3
 20
5.5706e3
 30
0
 70
     0
  0
VERTEX
  8
LAYER1
 10
4.1265e3
 20
5.6342e3
 30
0
 70
     0
  0
VERTEX
  8
LAYER1
 10
4.1558e3
 20
5.7076e3
 30
0
 70
     0
  0
VERTEX
  8
LAYER1
 10
4.1656e3
 20
5.7663e3
 30
0
 70
     0
  0
VERTEX
  8
LAYER1
 10
4.1705e3
 20
5.825e3
 30
0
 70
     0
  0
VERTEX
  8
LAYER1
 10
4.1644e3
 20
5.8849e3
 30
0
 70
     0
  0
VERTEX
  8
LAYER1
 10
4.1558e3
 20
5.9375e3
 30
0
 70
     0
  0
VERTEX
  8
LAYER1
 10
4.1265e3
 20
5.9864e3
 30
0
 70
     0
  0
VERTEX
  8
LAYER1
 10
4.069e3
 20
6.0195e3
 30
0
 70
     0
  0
SEQEND
  0
POLYLINE
  8
LAYER1
  6
CONTINUOUS
 62
     7
 66
     1
 70
     0
 40
0.0139
 41
0.0139
  0
VERTEX
  8
LAYER1
 10
5.3397e3
 20
6.5441e3
 30
0
 70
     0
  0
VERTEX
  8
LAYER1
 10
5.2846e3
 20
6.5453e3
 30
0
 70
     0
  0
VERTEX
  8
LAYER1
 10
5.2174e3
 20
6.5245e3
 30
0
 70
     0
  0
VERTEX
  8
LAYER1
 10
5.1342e3
 20
6.4903e3
 30
0
 70
     0
  0
VERTEX
  8
LAYER1
 10
5.0462e3
 20
6.4365e3
 30
0
 70
     0
  0
VERTEX
  8
LAYER1
 10
5.0021e3
 20
6.3925e3
 30
0
 70
     0
  0
VERTEX
  8
LAYER1
 10
4.9324e3
 20
6.3105e3
 30
0
 70
     0
  0
VERTEX
  8
LAYER1
 10
4.8896e3
 20
6.2408e3
 30
0
 70
     0
  0
VERTEX
  8
LAYER1
 10
4.8554e3
 20
6.1625e3
 30
0
 70
     0
  0
VERTEX
  8
LAYER1
 10
4.8211e3
 20
6.0549e3
 30
0
 70
     0
  0
VERTEX
  8
LAYER1
 10
4.7967e3
 20
5.9375e3
 30
0
 70
     0
  0
VERTEX
  8
LAYER1
 10
4.7967e3
 20
5.8592e3
 30
0
 70
     0
  0
VERTEX
  8
LAYER1
 10
4.8065e3
 20
5.8054e3
 30
0
 70
     0
  0
VERTEX
  8
LAYER1
 10
4.8358e3
 20
5.7516e3
 30
0
 70
     0
  0
VERTEX
  8
LAYER1
 10
4.8847e3
 20
5.7076e3
 30
0
 70
     0
  0
VERTEX
  8
LAYER1
 10
4.9434e3
 20
5.6733e3
 30
0
 70
     0
  0
VERTEX
  8
LAYER1
 10
5.0021e3
 20
5.6587e3
 30
0
 70
     0
  0
VERTEX
  8
LAYER1
 10
5.0352e3
 20
5.6623e3
 30
0
 70
     0
  0
VERTEX
  8
LAYER1
 10
5.0743e3
 20
5.6844e3
 30
0
 70
     0
  0
VERTEX
  8
LAYER1
 10
5.1036e3
 20
5.7113e3
 30
0
 70
     0
  0
VERTEX
  8
LAYER1
 10
5.1244e3
 20
5.7369e3
 30
0
 70
     0
  0
VERTEX
  8
LAYER1
 10
5.1354e3
 20
5.7577e3
 30
0
 70
     0
  0
VERTEX
  8
LAYER1
 10
5.1452e3
 20
5.7822e3
 30
0
 70
     0
  0
VERTEX
  8
LAYER1
 10
5.1501e3
 20
5.8115e3
 30
0
 70
     0
  0
VERTEX
  8
LAYER1
 10
5.1526e3
 20
5.8482e3
 30
0
 70
     0
  0
VERTEX
  8
LAYER1
 10
5.155e3
 20
5.88e3
 30
0
 70
     0
  0
VERTEX
  8
LAYER1
 10
5.1623e3
 20
5.9118e3
 30
0
 70
     0
  0
VERTEX
  8
LAYER1
 10
5.177e3
 20
5.9436e3
 30
0
 70
     0
  0
VERTEX
  8
LAYER1
 10
5.1917e3
 20
5.9705e3
 30
0
 70
     0
  0
VERTEX
  8
LAYER1
 10
5.2088e3
 20
5.9901e3
 30
0
 70
     0
  0
VERTEX
  8
LAYER1
 10
5.2369e3
 20
6.0305e3
 30
0
 70
     0
  0
VERTEX
  8
LAYER1
 10
5.2565e3
 20
6.0745e3
 30
0
 70
     0
  0
VERTEX
  8
LAYER1
 10
5.2712e3
 20
6.1185e3
 30
0
 70
     0
  0
VERTEX
  8
LAYER1
 10
5.281e3
 20
6.1723e3
 30
0
 70
     0
  0
VERTEX
  8
LAYER1
 10
5.2957e3
 20
6.2115e3
 30
0
 70
     0
  0
VERTEX
  8
LAYER1
 10
5.3018e3
 20
6.2274e3
 30
0
 70
     0
  0
VERTEX
  8
LAYER1
 10
5.3213e3
 20
6.264e3
 30
0
 70
     0
  0
VERTEX
  8
LAYER1
 10
5.3482e3
 20
6.3007e3
 30
0
 70
     0
  0
VERTEX
  8
LAYER1
 10
5.3776e3
 20
6.3374e3
 30
0
 70
     0
  0
VERTEX
  8
LAYER1
 10
5.3972e3
 20
6.379e3
 30
0
 70
     0
  0
VERTEX
  8
LAYER1
 10
5.4082e3
 20
6.4218e3
 30
0
 70
     0
  0
VERTEX
  8
LAYER1
 10
5.4082e3
 20
6.4561e3
 30
0
 70
     0
  0
VERTEX
  8
LAYER1
 10
5.3972e3
 20
6.4891e3
 30
0
 70
     0
  0
VERTEX
  8
LAYER1
 10
5.3727e3
 20
6.5282e3
 30
0
 70
     0
  0
VERTEX
  8
LAYER1
 10
5.3397e3
 20
6.5441e3
 30
0
 70
     0
  0
SEQEND
  0
POLYLINE
  8
LAYER1
  6
CONTINUOUS
 62
     7
 66
     1
 70
     0
 40
0.0139
 41
0.0139
  0
VERTEX
  8
LAYER1
 10
1.6878e3
 20
9.0341e3
 30
0
 70
     0
  0
VERTEX
  8
LAYER1
 10
6.3019e3
 20
9.0341e3
 30
0
 70
     0
  0
VERTEX
  8
LAYER1
 10
6.3019e3
 20
2.6413e3
 30
0
 70
     0
  0
VERTEX
  8
LAYER1
 10
1.6878e3
 20
2.6413e3
 30
0
 70
     0
  0
VERTEX
  8
LAYER1
 10
1.6878e3
 20
9.0341e3
 30
0
 70
     0
  0
SEQEND
  0
INSERT
  8
LAYER1
  2
Group1
 10
0
 20
0
 30
0
  0
POLYLINE
  8
LAYER1
  6
CONTINUOUS
 62
     7
 66
     1
 70
     0
 40
0.0139
 41
0.0139
  0
VERTEX
  8
LAYER1
 10
5.1342e3
 20
8.7651e3
 30
0
 70
     0
  0
VERTEX
  8
LAYER1
 10
5.0755e3
 20
8.7993e3
 30
0
 70
     0
  0
VERTEX
  8
LAYER1
 10
4.9728e3
 20
8.8336e3
 30
0
 70
     0
  0
VERTEX
  8
LAYER1
 10
4.8847e3
 20
8.8482e3
 30
0
 70
     0
  0
VERTEX
  8
LAYER1
 10
4.7869e3
 20
8.858e3
 30
0
 70
     0
  0
VERTEX
  8
LAYER1
 10
4.6646e3
 20
8.8727e3
 30
0
 70
     0
  0
VERTEX
  8
LAYER1
 10
4.5765e3
 20
8.8776e3
 30
0
 70
     0
  0
VERTEX
  8
LAYER1
 10
4.4444e3
 20
8.8629e3
 30
0
 70
     0
  0
VERTEX
  8
LAYER1
 10
4.283e3
 20
8.8287e3
 30
0
 70
     0
  0
VERTEX
  8
LAYER1
 10
4.0824e3
 20
8.7944e3
 30
0
 70
     0
  0
VERTEX
  8
LAYER1
 10
3.965e3
 20
8.7651e3
 30
0
 70
     0
  0
VERTEX
  8
LAYER1
 10
3.8378e3
 20
8.721e3
 30
0
 70
     0
  0
VERTEX
  8
LAYER1
 10
3.7106e3
 20
8.6819e3
 30
0
 70
     0
  0
VERTEX
  8
LAYER1
 10
3.6373e3
 20
8.6721e3
 30
0
 70
     0
  0
VERTEX
  8
LAYER1
 10
3.5443e3
 20
8.6721e3
 30
0
 70
     0
  0
VERTEX
  8
LAYER1
 10
3.4367e3
 20
8.6721e3
 30
0
 70
     0
  0
VERTEX
  8
LAYER1
 10
3.3584e3
 20
8.6819e3
 30
0
 70
     0
  0
VERTEX
  8
LAYER1
 10
3.2899e3
 20
8.6868e3
 30
0
 70
     0
  0
VERTEX
  8
LAYER1
 10
3.1872e3
 20
8.6966e3
 30
0
 70
     0
  0
VERTEX
  8
LAYER1
 10
3.0551e3
 20
8.7015e3
 30
0
 70
     0
  0
VERTEX
  8
LAYER1
 10
2.9377e3
 20
8.7162e3
 30
0
 70
     0
  0
VERTEX
  8
LAYER1
 10
2.8399e3
 20
8.7259e3
 30
0
 70
     0
  0
VERTEX
  8
LAYER1
 10
2.742e3
 20
8.7308e3
 30
0
 70
     0
  0
VERTEX
  8
LAYER1
 10
2.6784e3
 20
8.721e3
 30
0
 70
     0
  0
VERTEX
  8
LAYER1
 10
2.6246e3
 20
8.7064e3
 30
0
 70
     0
  0
VERTEX
  8
LAYER1
 10
2.561e3
 20
8.677e3
 30
0
 70
     0
  0
VERTEX
  8
LAYER1
 10
2.4877e3
 20
8.6379e3
 30
0
 70
     0
  0
VERTEX
  8
LAYER1
 10
2.4387e3
 20
8.5939e3
 30
0
 70
     0
  0
VERTEX
  8
LAYER1
 10
2.4045e3
 20
8.5547e3
 30
0
 70
     0
  0
VERTEX
  8
LAYER1
 10
2.38e3
 20
8.5205e3
 30
0
 70
     0
  0
VERTEX
  8
LAYER1
 10
2.3654e3
 20
8.4911e3
 30
0
 70
     0
  0
VERTEX
  8
LAYER1
 10
2.3605e3
 20
8.4471e3
 30
0
 70
     0
  0
VERTEX
  8
LAYER1
 10
2.3605e3
 20
8.4129e3
 30
0
 70
     0
  0
VERTEX
  8
LAYER1
 10
2.3702e3
 20
8.3884e3
 30
0
 70
     0
  0
VERTEX
  8
LAYER1
 10
2.3849e3
 20
8.3493e3
 30
0
 70
     0
  0
VERTEX
  8
LAYER1
 10
2.4094e3
 20
8.3101e3
 30
0
 70
     0
  0
VERTEX
  8
LAYER1
 10
2.4485e3
 20
8.2759e3
 30
0
 70
     0
  0
VERTEX
  8
LAYER1
 10
2.4877e3
 20
8.2563e3
 30
0
 70
     0
  0
VERTEX
  8
LAYER1
 10
2.5415e3
 20
8.2367e3
 30
0
 70
     0
  0
VERTEX
  8
LAYER1
 10
2.6002e3
 20
8.2172e3
 30
0
 70
     0
  0
VERTEX
  8
LAYER1
 10
2.6589e3
 20
8.1976e3
 30
0
 70
     0
  0
VERTEX
  8
LAYER1
 10
2.7225e3
 20
8.178e3
 30
0
 70
     0
  0
VERTEX
  8
LAYER1
 10
2.8007e3
 20
8.1634e3
 30
0
 70
     0
  0
VERTEX
  8
LAYER1
 10
2.8888e3
 20
8.1634e3
 30
0
 70
     0
  0
VERTEX
  8
LAYER1
 10
2.9622e3
 20
8.1634e3
 30
0
 70
     0
  0
VERTEX
  8
LAYER1
 10
3.0551e3
 20
8.178e3
 30
0
 70
     0
  0
VERTEX
  8
LAYER1
 10
3.1578e3
 20
8.1927e3
 30
0
 70
     0
  0
VERTEX
  8
LAYER1
 10
3.2263e3
 20
8.1976e3
 30
0
 70
     0
  0
VERTEX
  8
LAYER1
 10
3.3144e3
 20
8.1976e3
 30
0
 70
     0
  0
VERTEX
  8
LAYER1
 10
3.4024e3
 20
8.2074e3
 30
0
 70
     0
  0
VERTEX
  8
LAYER1
 10
3.4856e3
 20
8.2221e3
 30
0
 70
     0
  0
VERTEX
  8
LAYER1
 10
3.5639e3
 20
8.2416e3
 30
0
 70
     0
  0
VERTEX
  8
LAYER1
 10
3.6226e3
 20
8.2612e3
 30
0
 70
     0
  0
VERTEX
  8
LAYER1
 10
3.7155e3
 20
8.2808e3
 30
0
 70
     0
  0
VERTEX
  8
LAYER1
 10
3.7889e3
 20
8.3101e3
 30
0
 70
     0
  0
VERTEX
  8
LAYER1
 10
3.8525e3
 20
8.3248e3
 30
0
 70
     0
  0
VERTEX
  8
LAYER1
 10
3.965e3
 20
8.3395e3
 30
0
 70
     0
  0
VERTEX
  8
LAYER1
 10
4.058e3
 20
8.3395e3
 30
0
 70
     0
  0
VERTEX
  8
LAYER1
 10
4.1754e3
 20
8.3297e3
 30
0
 70
     0
  0
VERTEX
  8
LAYER1
 10
4.2537e3
 20
8.3248e3
 30
0
 70
     0
  0
VERTEX
  8
LAYER1
 10
4.3221e3
 20
8.3101e3
 30
0
 70
     0
  0
VERTEX
  8
LAYER1
 10
4.4102e3
 20
8.2857e3
 30
0
 70
     0
  0
VERTEX
  8
LAYER1
 10
4.5129e3
 20
8.2563e3
 30
0
 70
     0
  0
VERTEX
  8
LAYER1
 10
4.5961e3
 20
8.2367e3
 30
0
 70
     0
  0
VERTEX
  8
LAYER1
 10
4.6939e3
 20
8.227e3
 30
0
 70
     0
  0
VERTEX
  8
LAYER1
 10
4.7575e3
 20
8.2172e3
 30
0
 70
     0
  0
VERTEX
  8
LAYER1
 10
4.8309e3
 20
8.2123e3
 30
0
 70
     0
  0
VERTEX
  8
LAYER1
 10
4.9141e3
 20
8.2221e3
 30
0
 70
     0
  0
VERTEX
  8
LAYER1
 10
4.9875e3
 20
8.2172e3
 30
0
 70
     0
  0
VERTEX
  8
LAYER1
 10
5.0951e3
 20
8.227e3
 30
0
 70
     0
  0
VERTEX
  8
LAYER1
 10
5.1538e3
 20
8.2465e3
 30
0
 70
     0
  0
VERTEX
  8
LAYER1
 10
5.2125e3
 20
8.2563e3
 30
0
 70
     0
  0
VERTEX
  8
LAYER1
 10
5.2565e3
 20
8.2857e3
 30
0
 70
     0
  0
VERTEX
  8
LAYER1
 10
5.2908e3
 20
8.315e3
 30
0
 70
     0
  0
VERTEX
  8
LAYER1
 10
5.3152e3
 20
8.3493e3
 30
0
 70
     0
  0
VERTEX
  8
LAYER1
 10
5.3299e3
 20
8.3933e3
 30
0
 70
     0
  0
VERTEX
  8
LAYER1
 10
5.3397e3
 20
8.4373e3
 30
0
 70
     0
  0
VERTEX
  8
LAYER1
 10
5.3397e3
 20
8.4716e3
 30
0
 70
     0
  0
VERTEX
  8
LAYER1
 10
5.3299e3
 20
8.5058e3
 30
0
 70
     0
  0
VERTEX
  8
LAYER1
 10
5.3201e3
 20
8.5401e3
 30
0
 70
     0
  0
VERTEX
  8
LAYER1
 10
5.3054e3
 20
8.5792e3
 30
0
 70
     0
  0
VERTEX
  8
LAYER1
 10
5.2761e3
 20
8.6281e3
 30
0
 70
     0
  0
VERTEX
  8
LAYER1
 10
5.2467e3
 20
8.6623e3
 30
0
 70
     0
  0
VERTEX
  8
LAYER1
 10
5.2272e3
 20
8.6917e3
 30
0
 70
     0
  0
VERTEX
  8
LAYER1
 10
5.2027e3
 20
8.7113e3
 30
0
 70
     0
  0
VERTEX
  8
LAYER1
 10
5.1831e3
 20
8.7406e3
 30
0
 70
     0
  0
VERTEX
  8
LAYER1
 10
5.1342e3
 20
8.7651e3
 30
0
 70
     0
  0
SEQEND
  0
INSERT
  8
LAYER1
  2
Group2
 10
0
 20
0
 30
0
  0
LINE
  8
LAYER1
  6
CONTINUOUS
 62
     7
 10
5.764e3
 20
3.571e3
 30
0
 11
5.7151e3
 21
3.2775e3
 31
0
  0
LINE
  8
LAYER1
  6
CONTINUOUS
 62
     7
 10
2.0462e3
 20
3.3264e3
 30
0
 11
2.0951e3
 21
2.9938e3
 31
0
  0
POLYLINE
  8
LAYER1
  6
CONTINUOUS
 62
     7
 66
     1
 70
     0
 40
0.0139
 41
0.0139
  0
VERTEX
  8
LAYER1
 10
1.6927e3
 20
8.721e3
 30
0
 70
     0
  0
VERTEX
  8
LAYER1
 10
1.7802e3
 20
8.5645e3
 30
0
 70
     0
  0
VERTEX
  8
LAYER1
 10
1.9066e3
 20
8.2808e3
 30
0
 70
     0
  0
VERTEX
  8
LAYER1
 10
1.965e3
 20
8.1047e3
 30
0
 70
     0
  0
VERTEX
  8
LAYER1
 10
2.033e3
 20
7.8601e3
 30
0
 70
     0
  0
VERTEX
  8
LAYER1
 10
2.1011e3
 20
7.5176e3
 30
0
 70
     0
  0
VERTEX
  8
LAYER1
 10
2.1206e3
 20
7.3366e3
 30
0
 70
     0
  0
VERTEX
  8
LAYER1
 10
2.1303e3
 20
7.2045e3
 30
0
 70
     0
  0
VERTEX
  8
LAYER1
 10
2.1011e3
 20
7.0186e3
 30
0
 70
     0
  0
VERTEX
  8
LAYER1
 10
2.0428e3
 20
6.7642e3
 30
0
 70
     0
  0
VERTEX
  8
LAYER1
 10
2.0136e3
 20
6.5294e3
 30
0
 70
     0
  0
VERTEX
  8
LAYER1
 10
1.9941e3
 20
6.4022e3
 30
0
 70
     0
  0
VERTEX
  8
LAYER1
 10
2.0136e3
 20
6.1968e3
 30
0
 70
     0
  0
VERTEX
  8
LAYER1
 10
2.0719e3
 20
6.0207e3
 30
0
 70
     0
  0
VERTEX
  8
LAYER1
 10
2.1886e3
 20
5.7663e3
 30
0
 70
     0
  0
VERTEX
  8
LAYER1
 10
2.2567e3
 20
5.6293e3
 30
0
 70
     0
  0
VERTEX
  8
LAYER1
 10
2.3199e3
 20
5.4923e3
 30
0
 70
     0
  0
VERTEX
  8
LAYER1
 10
2.3734e3
 20
5.3847e3
 30
0
 70
     0
  0
VERTEX
  8
LAYER1
 10
2.4123e3
 20
5.2869e3
 30
0
 70
     0
  0
VERTEX
  8
LAYER1
 10
2.4463e3
 20
5.189e3
 30
0
 70
     0
  0
VERTEX
  8
LAYER1
 10
2.4707e3
 20
5.0716e3
 30
0
 70
     0
  0
VERTEX
  8
LAYER1
 10
2.4852e3
 20
4.9885e3
 30
0
 70
     0
  0
VERTEX
  8
LAYER1
 10
2.4901e3
 20
4.9151e3
 30
0
 70
     0
  0
VERTEX
  8
LAYER1
 10
2.4901e3
 20
4.8466e3
 30
0
 70
     0
  0
VERTEX
  8
LAYER1
 10
2.4755e3
 20
4.7634e3
 30
0
 70
     0
  0
VERTEX
  8
LAYER1
 10
2.4512e3
 20
4.6803e3
 30
0
 70
     0
  0
VERTEX
  8
LAYER1
 10
2.4172e3
 20
4.5726e3
 30
0
 70
     0
  0
VERTEX
  8
LAYER1
 10
2.3685e3
 20
4.4895e3
 30
0
 70
     0
  0
VERTEX
  8
LAYER1
 10
2.2956e3
 20
4.3231e3
 30
0
 70
     0
  0
VERTEX
  8
LAYER1
 10
2.2616e3
 20
4.2693e3
 30
0
 70
     0
  0
VERTEX
  8
LAYER1
 10
2.2178e3
 20
4.1764e3
 30
0
 70
     0
  0
VERTEX
  8
LAYER1
 10
2.1838e3
 20
4.0785e3
 30
0
 70
     0
  0
VERTEX
  8
LAYER1
 10
2.1546e3
 20
3.9709e3
 30
0
 70
     0
  0
VERTEX
  8
LAYER1
 10
2.1157e3
 20
3.8339e3
 30
0
 70
     0
  0
VERTEX
  8
LAYER1
 10
2.0914e3
 20
3.7704e3
 30
0
 70
     0
  0
VERTEX
  8
LAYER1
 10
2.033e3
 20
3.6578e3
 30
0
 70
     0
  0
VERTEX
  8
LAYER1
 10
1.9601e3
 20
3.56e3
 30
0
 70
     0
  0
VERTEX
  8
LAYER1
 10
1.858e3
 20
3.4671e3
 30
0
 70
     0
  0
VERTEX
  8
LAYER1
 10
1.7948e3
 20
3.4328e3
 30
0
 70
     0
  0
VERTEX
  8
LAYER1
 10
1.7364e3
 20
3.4084e3
 30
0
 70
     0
  0
VERTEX
  8
LAYER1
 10
1.6927e3
 20
3.3937e3
 30
0
 70
     0
  0
VERTEX
  8
LAYER1
 10
1.6878e3
 20
6.549e3
 30
0
 70
     0
  0
VERTEX
  8
LAYER1
 10
1.6878e3
 20
8.4275e3
 30
0
 70
     0
  0
VERTEX
  8
LAYER1
 10
1.6878e3
 20
8.6036e3
 30
0
 70
     0
  0
VERTEX
  8
LAYER1
 10
1.6927e3
 20
8.721e3
 30
0
 70
     0
  0
SEQEND
  0
POLYLINE
  8
LAYER1
  6
CONTINUOUS
 62
     7
 66
     1
 70
     0
 40
0.0139
 41
0.0139
  0
VERTEX
  8
LAYER1
 10
6.3009e3
 20
8.5645e3
 30
0
 70
     0
  0
VERTEX
  8
LAYER1
 10
6.208e3
 20
8.5547e3
 30
0
 70
     0
  0
VERTEX
  8
LAYER1
 10
6.1297e3
 20
8.5352e3
 30
0
 70
     0
  0
VERTEX
  8
LAYER1
 10
6.0025e3
 20
8.5009e3
 30
0
 70
     0
  0
VERTEX
  8
LAYER1
 10
5.9194e3
 20
8.4618e3
 30
0
 70
     0
  0
VERTEX
  8
LAYER1
 10
5.8656e3
 20
8.4226e3
 30
0
 70
     0
  0
VERTEX
  8
LAYER1
 10
5.8069e3
 20
8.3639e3
 30
0
 70
     0
  0
VERTEX
  8
LAYER1
 10
5.7677e3
 20
8.3052e3
 30
0
 70
     0
  0
VERTEX
  8
LAYER1
 10
5.7335e3
 20
8.2416e3
 30
0
 70
     0
  0
VERTEX
  8
LAYER1
 10
5.7041e3
 20
8.1585e3
 30
0
 70
     0
  0
VERTEX
  8
LAYER1
 10
5.6797e3
 20
8.0068e3
 30
0
 70
     0
  0
VERTEX
  8
LAYER1
 10
5.6699e3
 20
7.8796e3
 30
0
 70
     0
  0
VERTEX
  8
LAYER1
 10
5.6748e3
 20
7.7084e3
 30
0
 70
     0
  0
VERTEX
  8
LAYER1
 10
5.7139e3
 20
7.5568e3
 30
0
 70
     0
  0
VERTEX
  8
LAYER1
 10
5.7971e3
 20
7.4198e3
 30
0
 70
     0
  0
VERTEX
  8
LAYER1
 10
5.89e3
 20
7.3268e3
 30
0
 70
     0
  0
VERTEX
  8
LAYER1
 10
5.9634e3
 20
7.2437e3
 30
0
 70
     0
  0
VERTEX
  8
LAYER1
 10
5.9928e3
 20
7.185e3
 30
0
 70
     0
  0
VERTEX
  8
LAYER1
 10
6.0172e3
 20
7.1067e3
 30
0
 70
     0
  0
VERTEX
  8
LAYER1
 10
6.0563e3
 20
6.9306e3
 30
0
 70
     0
  0
VERTEX
  8
LAYER1
 10
6.0808e3
 20
6.7398e3
 30
0
 70
     0
  0
VERTEX
  8
LAYER1
 10
6.0906e3
 20
6.5832e3
 30
0
 70
     0
  0
VERTEX
  8
LAYER1
 10
6.0955e3
 20
6.4169e3
 30
0
 70
     0
  0
VERTEX
  8
LAYER1
 10
6.0759e3
 20
6.1234e3
 30
0
 70
     0
  0
VERTEX
  8
LAYER1
 10
6.0417e3
 20
5.8495e3
 30
0
 70
     0
  0
VERTEX
  8
LAYER1
 10
5.983e3
 20
5.6049e3
 30
0
 70
     0
  0
VERTEX
  8
LAYER1
 10
5.9389e3
 20
5.4043e3
 30
0
 70
     0
  0
VERTEX
  8
LAYER1
 10
5.8705e3
 20
5.1499e3
 30
0
 70
     0
  0
VERTEX
  8
LAYER1
 10
5.7922e3
 20
4.9395e3
 30
0
 70
     0
  0
VERTEX
  8
LAYER1
 10
5.7433e3
 20
4.7732e3
 30
0
 70
     0
  0
VERTEX
  8
LAYER1
 10
5.709e3
 20
4.6558e3
 30
0
 70
     0
  0
VERTEX
  8
LAYER1
 10
5.6894e3
 20
4.5237e3
 30
0
 70
     0
  0
VERTEX
  8
LAYER1
 10
5.6797e3
 20
4.377e3
 30
0
 70
     0
  0
VERTEX
  8
LAYER1
 10
5.6943e3
 20
4.2693e3
 30
0
 70
     0
  0
VERTEX
  8
LAYER1
 10
5.7286e3
 20
4.1666e3
 30
0
 70
     0
  0
VERTEX
  8
LAYER1
 10
5.7677e3
 20
4.0883e3
 30
0
 70
     0
  0
VERTEX
  8
LAYER1
 10
5.846e3
 20
3.9758e3
 30
0
 70
     0
  0
VERTEX
  8
LAYER1
 10
5.9243e3
 20
3.8878e3
 30
0
 70
     0
  0
VERTEX
  8
LAYER1
 10
6.0172e3
 20
3.8193e3
 30
0
 70
     0
  0
VERTEX
  8
LAYER1
 10
6.1151e3
 20
3.785e3
 30
0
 70
     0
  0
VERTEX
  8
LAYER1
 10
6.208e3
 20
3.7752e3
 30
0
 70
     0
  0
VERTEX
  8
LAYER1
 10
6.2679e3
 20
3.774e3
 30
0
 70
     0
  0
VERTEX
  8
LAYER1
 10
6.2896e3
 20
3.7736e3
 30
0
 70
     0
  0
VERTEX
  8
LAYER1
 10
6.2961e3
 20
3.7736e3
 30
0
 70
     0
  0
VERTEX
  8
LAYER1
 10
6.3009e3
 20
8.5645e3
 30
0
 70
     0
  0
SEQEND
  0
POLYLINE
  8
LAYER1
  6
CONTINUOUS
 62
     7
 66
     1
 70
     0
 40
0.0139
 41
0.0139
  0
VERTEX
  8
LAYER1
 10
6.2936e3
 20
3.0366e3
 30
0
 70
     0
  0
VERTEX
  8
LAYER1
 10
6.1053e3
 20
3.0708e3
 30
0
 70
     0
  0
VERTEX
  8
LAYER1
 10
5.8851e3
 20
3.1002e3
 30
0
 70
     0
  0
VERTEX
  8
LAYER1
 10
5.6894e3
 20
3.1051e3
 30
0
 70
     0
  0
VERTEX
  8
LAYER1
 10
5.5476e3
 20
3.1099e3
 30
0
 70
     0
  0
VERTEX
  8
LAYER1
 10
5.4155e3
 20
3.1051e3
 30
0
 70
     0
  0
VERTEX
  8
LAYER1
 10
5.2736e3
 20
3.1002e3
 30
0
 70
     0
  0
VERTEX
  8
LAYER1
 10
5.0633e3
 20
3.0806e3
 30
0
 70
     0
  0
VERTEX
  8
LAYER1
 10
4.8383e3
 20
3.0512e3
 30
0
 70
     0
  0
VERTEX
  8
LAYER1
 10
4.7257e3
 20
3.0366e3
 30
0
 70
     0
  0
VERTEX
  8
LAYER1
 10
4.6181e3
 20
3.0219e3
 30
0
 70
     0
  0
VERTEX
  8
LAYER1
 10
4.5496e3
 20
3.0121e3
 30
0
 70
     0
  0
VERTEX
  8
LAYER1
 10
4.4762e3
 20
3.0121e3
 30
0
 70
     0
  0
VERTEX
  8
LAYER1
 10
4.3295e3
 20
3.0219e3
 30
0
 70
     0
  0
VERTEX
  8
LAYER1
 10
4.1974e3
 20
3.0366e3
 30
0
 70
     0
  0
VERTEX
  8
LAYER1
 10
3.987e3
 20
3.0708e3
 30
0
 70
     0
  0
VERTEX
  8
LAYER1
 10
3.8647e3
 20
3.0806e3
 30
0
 70
     0
  0
VERTEX
  8
LAYER1
 10
3.7229e3
 20
3.0953e3
 30
0
 70
     0
  0
VERTEX
  8
LAYER1
 10
3.6348e3
 20
3.1002e3
 30
0
 70
     0
  0
VERTEX
  8
LAYER1
 10
3.5272e3
 20
3.1026e3
 30
0
 70
     0
  0
VERTEX
  8
LAYER1
 10
3.3853e3
 20
3.0855e3
 30
0
 70
     0
  0
VERTEX
  8
LAYER1
 10
3.2728e3
 20
3.061e3
 30
0
 70
     0
  0
VERTEX
  8
LAYER1
 10
3.2092e3
 20
3.0464e3
 30
0
 70
     0
  0
VERTEX
  8
LAYER1
 10
3.0625e3
 20
3.0219e3
 30
0
 70
     0
  0
VERTEX
  8
LAYER1
 10
2.8961e3
 20
2.9828e3
 30
0
 70
     0
  0
VERTEX
  8
LAYER1
 10
2.7836e3
 20
2.9681e3
 30
0
 70
     0
  0
VERTEX
  8
LAYER1
 10
2.6613e3
 20
2.9632e3
 30
0
 70
     0
  0
VERTEX
  8
LAYER1
 10
2.5097e3
 20
2.9534e3
 30
0
 70
     0
  0
VERTEX
  8
LAYER1
 10
2.3433e3
 20
2.9387e3
 30
0
 70
     0
  0
VERTEX
  8
LAYER1
 10
2.1672e3
 20
2.9387e3
 30
0
 70
     0
  0
VERTEX
  8
LAYER1
 10
2.0156e3
 20
2.924e3
 30
0
 70
     0
  0
VERTEX
  8
LAYER1
 10
1.8933e3
 20
2.9045e3
 30
0
 70
     0
  0
VERTEX
  8
LAYER1
 10
1.815e3
 20
2.88e3
 30
0
 70
     0
  0
VERTEX
  8
LAYER1
 10
1.7465e3
 20
2.8605e3
 30
0
 70
     0
  0
VERTEX
  8
LAYER1
 10
1.6927e3
 20
2.836e3
 30
0
 70
     0
  0
VERTEX
  8
LAYER1
 10
1.6878e3
 20
2.6354e3
 30
0
 70
     0
  0
VERTEX
  8
LAYER1
 10
6.2985e3
 20
2.6354e3
 30
0
 70
     0
  0
VERTEX
  8
LAYER1
 10
6.2936e3
 20
3.0366e3
 30
0
 70
     0
  0
SEQEND
  0
TEXT
  8
LAYER1 @@@@@@@@@@@@@
 62
     7
 10
3.4762e3
 20
2.3541e3
 30
0
 40
0.0972e3
  1
0
 50
0
  7
HELVETIC
999
Helvetica
  0
INSERT
  8
LAYER1
  2
Group3
 10
0
 20
0
 30
0
  0
TEXT
  8
LAYER1
 62
     7
 10
3.9207e3
 20
2.3541e3
 30
0
 40
0.0972e3
  1
0.5
 50
0
  7
HELVETIC
999
Helvetica
  0
TEXT
  8
LAYER1
 62
     7
 10
4.4346e3
 20
2.3541e3
 30
0
 40
0.0972e3
  1
1.0 km
 50
0
  7
HELVETIC
999
Helvetica
  0
ENDSEC
  0
EOF
